<svg xmlns="http://www.w3.org/2000/svg" viewBox="0 0 16 16"><path d="M14.911 3.994a7.957 7.957 0 0 0-2.908-2.909A7.817 7.817 0 0 0 7.992.013c-1.45 0-2.787.358-4.012 1.072a7.956 7.956 0 0 0-2.908 2.909A7.817 7.817 0 0 0 0 8.004c0 1.742.508 3.308 1.524 4.699 1.017 1.39 2.33 2.353 3.939 2.887.187.035.326.01.416-.072a.407.407 0 0 0 .135-.312l-.005-.562a92.932 92.932 0 0 1-.005-.926l-.24.041c-.152.028-.345.04-.577.037a4.4 4.4 0 0 1-.723-.073 1.616 1.616 0 0 1-.697-.312 1.32 1.32 0 0 1-.458-.64l-.104-.24a2.6 2.6 0 0 0-.328-.53c-.15-.194-.3-.326-.453-.395l-.072-.053a.764.764 0 0 1-.136-.125.57.57 0 0 1-.093-.145c-.021-.049-.004-.089.052-.12.055-.031.156-.047.302-.047l.208.031c.138.028.31.111.515.25.204.139.372.32.504.541.16.285.352.501.578.65.225.15.452.224.681.224.23 0 .427-.017.593-.052a2.07 2.07 0 0 0 .469-.156c.062-.465.232-.822.51-1.072a7.125 7.125 0 0 1-1.067-.187 4.247 4.247 0 0 1-.978-.406 2.801 2.801 0 0 1-.838-.697c-.222-.278-.404-.642-.546-1.093-.142-.45-.213-.971-.213-1.56 0-.84.274-1.555.822-2.144-.257-.632-.233-1.34.073-2.123.2-.062.5-.016.894.14.396.157.685.29.87.401.183.111.33.205.442.281a7.389 7.389 0 0 1 1.998-.27c.686 0 1.352.09 1.998.27l.395-.25a5.6 5.6 0 0 1 .957-.457c.368-.14.65-.177.843-.115.312.784.34 1.492.083 2.123.548.59.823 1.304.823 2.143 0 .59-.072 1.112-.214 1.566-.142.455-.326.819-.55 1.093a2.91 2.91 0 0 1-.844.692 4.255 4.255 0 0 1-.978.406 7.118 7.118 0 0 1-1.067.187c.36.312.541.805.541 1.478v2.195c0 .125.044.23.13.312.087.083.224.108.411.073 1.61-.534 2.923-1.496 3.94-2.887 1.015-1.391 1.523-2.957 1.523-4.699 0-1.45-.357-2.786-1.072-4.01z"/></svg>