<?xml version="1.0" encoding="iso-8859-1"?>
<!-- Generator: Adobe Illustrator 19.0.0, SVG Export Plug-In . SVG Version: 6.00 Build 0)  -->
<svg xmlns="http://www.w3.org/2000/svg" xmlns:xlink="http://www.w3.org/1999/xlink" version="1.1" id="Capa_1" x="0px" y="0px" viewBox="0 0 512 512" style="enable-background:new 0 0 512 512;" xml:space="preserve" width="512" height="512">
<g>
	<path d="M34.524,225.391c4.142,0,7.5-3.357,7.5-7.5V157.34c0-16.94,10.875-29.235,25.857-29.235h88.317c4.142,0,7.5-3.357,7.5-7.5   s-3.358-7.5-7.5-7.5H67.881c-23.292,0-40.857,19.017-40.857,44.235v60.551C27.024,222.034,30.382,225.391,34.524,225.391z"/>
	<path d="M67.881,142.385c-6.925,0-11.577,6.01-11.577,14.955v231.585c0,1.751,0.613,3.447,1.732,4.794   c1.873,2.254,5.443,4.661,9.845,4.661h376.237c4.4,0,7.971-2.406,9.844-4.659c1.121-1.347,1.734-3.044,1.734-4.796v-38.799   c0-4.143-3.357-7.5-7.5-7.5s-7.5,3.357-7.5,7.5v33.254H71.304V157.385h87.402c4.142,0,7.5-3.357,7.5-7.5s-3.358-7.5-7.5-7.5H67.881   z"/>
	<path d="M448.196,327.745c4.143,0,7.5-3.357,7.5-7.5V157.34c0-8.945-4.653-14.955-11.578-14.955h-88.783   c-4.143,0-7.5,3.357-7.5,7.5s3.357,7.5,7.5,7.5h85.361v162.859C440.696,324.387,444.054,327.745,448.196,327.745z"/>
	<path d="M497.743,429.588H484.98V157.339c0-25.215-17.566-44.229-40.86-44.229h-87.65c-4.143,0-7.5,3.357-7.5,7.5   s3.357,7.5,7.5,7.5h87.65c14.984,0,25.86,12.293,25.86,29.229v272.249H307.803c-7.861,0-14.257,6.396-14.257,14.257v6.928h-75.092   v-6.928c0-7.861-6.396-14.257-14.257-14.257H42.02V247.888c0-4.143-3.358-7.5-7.5-7.5s-7.5,3.357-7.5,7.5v181.699H14.257   C6.396,429.588,0,435.983,0,443.844v17.617c0,17.784,14.468,32.252,32.252,32.252h447.496c17.784,0,32.252-14.468,32.252-32.252   v-17.617C512,435.983,505.604,429.588,497.743,429.588z M497,461.462c0,9.513-7.739,17.252-17.252,17.252H32.252   c-9.513,0-17.252-7.739-17.252-17.252v-16.874h19.501c0.006,0,0.013,0.001,0.019,0.001s0.013-0.001,0.019-0.001h168.915v6.928   c0,7.861,6.396,14.257,14.257,14.257h76.578c7.861,0,14.257-6.396,14.257-14.257v-6.928h168.915c0.006,0,0.013,0.001,0.019,0.001   s0.013-0.001,0.019-0.001H497V461.462z"/>
	<path d="M256,173.257c18.651,0,33.825-15.174,33.825-33.825S274.651,105.607,256,105.607s-33.825,15.174-33.825,33.825   S237.349,173.257,256,173.257z M256,120.607c10.38,0,18.825,8.445,18.825,18.825S266.38,158.257,256,158.257   c-10.38,0-18.825-8.445-18.825-18.825S245.62,120.607,256,120.607z"/>
	<path d="M181.442,152.001c-20.555,20.049-32.272,47.692-32.272,76.498c0,2.419,0.08,4.81,0.237,7.099   c0.675,9.921,8.978,17.691,18.903,17.691h39.743c0.777,2.092,1.56,4.169,2.354,6.21c3.105,7.975,10.641,13.128,19.198,13.128   h52.791c8.558,0,16.093-5.153,19.197-13.128c0.794-2.041,1.577-4.118,2.354-6.21h39.744c9.924,0,18.227-7.771,18.902-17.688   c0.157-2.297,0.237-4.687,0.237-7.103c0-28.806-11.717-56.448-32.272-76.498c2.191-14.015,3.416-26.75,3.416-37.102   c0-52.775-66.224-91.161-73.79-95.373c-0.04-0.022-0.082-0.046-0.119-0.066c-0.01-0.005-0.019-0.01-0.029-0.016   c-0.225-0.125-0.385-0.212-0.463-0.254c-0.01-0.005-0.02-0.008-0.029-0.014c-0.252-0.135-0.509-0.251-0.768-0.355   c-0.068-0.027-0.137-0.049-0.205-0.074c-0.212-0.078-0.426-0.146-0.641-0.204c-0.07-0.019-0.139-0.036-0.209-0.053   c-0.233-0.055-0.467-0.099-0.701-0.131c-0.049-0.007-0.097-0.016-0.146-0.021c-0.581-0.068-1.162-0.068-1.735-0.001   c-0.061,0.007-0.122,0.019-0.183,0.027c-0.221,0.032-0.44,0.072-0.658,0.123c-0.077,0.018-0.154,0.037-0.231,0.057   c-0.229,0.061-0.455,0.133-0.678,0.216c-0.045,0.017-0.091,0.03-0.135,0.047c-0.274,0.108-0.541,0.231-0.8,0.371   c-0.008,0.004-0.017,0.007-0.026,0.012c-0.428,0.232-10.633,5.794-23.394,15.49c-3.298,2.507-3.939,7.212-1.433,10.51   c2.507,3.299,7.212,3.939,10.509,1.434c7.458-5.668,14.037-9.848,17.885-12.165c8.195,4.948,28.818,18.39,44.262,36.832   c0.047,0.056,0.094,0.112,0.141,0.168c0.417,0.5,0.829,1.005,1.238,1.512c0.188,0.233,0.373,0.466,0.557,0.698   c0.286,0.36,0.569,0.721,0.851,1.084c0.101,0.131,0.197,0.261,0.297,0.391h-94.69c2.396-3.126,5.057-6.251,7.97-9.357   c2.834-3.021,2.682-7.768-0.339-10.602c-3.021-2.833-7.768-2.682-10.601,0.34c-3.939,4.2-7.47,8.458-10.596,12.735   c-0.099,0.12-0.2,0.237-0.293,0.364c-0.313,0.433-0.607,0.866-0.911,1.298c-0.093,0.133-0.187,0.266-0.279,0.398   c-0.579,0.83-1.141,1.66-1.688,2.491c-0.109,0.165-0.217,0.329-0.324,0.494c-0.516,0.792-1.016,1.585-1.502,2.379   c-0.125,0.204-0.25,0.408-0.373,0.611c-0.458,0.76-0.902,1.52-1.333,2.28c-0.075,0.132-0.158,0.264-0.232,0.396   c-0.016,0.029-0.027,0.06-0.042,0.089c-6.685,11.94-10.08,23.953-10.08,35.839C178.026,125.251,179.251,137.986,181.442,152.001z    M168.31,238.289c-2.066,0-3.796-1.629-3.938-3.715c-0.134-1.954-0.203-3.998-0.203-6.075c0-21.198,7.381-41.665,20.591-57.932   c4.379,21.935,10.637,45.646,18.011,67.722H168.31z M347.83,228.499c0,2.075-0.068,4.12-0.202,6.08   c-0.142,2.08-1.871,3.71-3.938,3.71h-34.462c7.373-22.075,13.632-45.787,18.011-67.721   C340.449,186.834,347.83,207.301,347.83,228.499z M312.745,90.143c4.807,9.842,6.228,18.253,6.228,24.756   c0,32.862-13.774,93.987-31.359,139.158c-0.844,2.168-2.893,3.569-5.219,3.569h-52.791c-2.327,0-4.375-1.401-5.22-3.569   c-17.584-45.17-31.359-106.295-31.359-139.158c0-8.074,2.086-16.361,6.196-24.756H312.745z"/>
	<path d="M255.999,351.726c-6.247-5.561-10.214-13.217-11.088-21.641c-0.428-4.119-4.117-7.117-8.234-6.686   c-4.12,0.428-7.114,4.114-6.686,8.234c1.521,14.661,9.509,27.706,21.916,35.788c1.244,0.811,2.669,1.216,4.094,1.216   s2.85-0.405,4.094-1.216c13.887-9.048,22.178-24.325,22.178-40.866c0-16.542-8.291-31.819-22.178-40.866   c-2.488-1.621-5.699-1.621-8.188,0c-4.465,2.908-8.404,6.505-11.709,10.69c-2.567,3.251-2.013,7.967,1.238,10.534   c3.25,2.565,7.966,2.014,10.534-1.237c1.224-1.55,2.572-2.982,4.034-4.288c7.132,6.359,11.269,15.449,11.269,25.167   C267.271,336.275,263.133,345.366,255.999,351.726z"/>
</g>















</svg>
