<svg xmlns="http://www.w3.org/2000/svg" viewBox="0 0 8 7"><path d="M5.522 2.14h.734L8 6.944h-.713l-.502-1.44H4.901l-.521 1.44h-.667L5.522 2.14zM6.6 4.975l-.74-2.123-.768 2.123H6.6z"/><path d="M4.837 5.488c-.93-.372-1.488-.837-2.046-1.302 0 0 .116.117 0 0-.558.465-1.86 1.21-1.86 1.21l-.373-.559c.744-.465.93-.558 1.768-1.21-.192-.177-1.117-1.208-1.21-1.767h.744c.373.838.93 1.303.93 1.303.93-.744.93-1.768.93-1.768h.745s-.093 1.21-1.116 2.233c.465.465.93.837 1.767 1.21l-.279.65zM0 1.395h5.21V.651H3.07V0h-.837v.651H0v.744z"/></svg>