<svg xmlns="http://www.w3.org/2000/svg" xmlns:xlink="http://www.w3.org/1999/xlink"><defs><symbol viewBox="0 0 512 512" id="profit"><path d="M54.754 149.62h87.326l-29.633 43.741a7.5 7.5 0 0 0 12.419 8.412l35.332-52.153h48.731l81.4 120.155a7.493 7.493 0 0 0 10.416 2.002 7.5 7.5 0 0 0 2.003-10.415l-80.751-119.196 48.252-69.697c6.55-9.462 7.301-21.671 1.96-31.864S256.402 24.08 244.895 24.08H124.232c-11.508 0-21.974 6.332-27.315 16.525s-4.59 22.402 1.96 31.865l31.663 45.734-63.876-37.808a7.5 7.5 0 0 0-7.64 12.908l69.801 41.315h-74.07c-4.142 0-7.5 3.357-7.5 7.5s3.357 7.501 7.499 7.501zm55.45-102.053c2.785-5.314 8.029-8.487 14.028-8.487h120.662c6 0 11.244 3.173 14.028 8.487 2.785 5.313 2.408 11.432-1.007 16.364l-48.938 70.688h-48.828l-48.938-70.688c-3.415-4.932-3.792-11.05-1.007-16.364z" /><path d="M393.083 250.087c-65.571 0-118.917 53.346-118.917 118.917 0 36.209 16.273 68.685 41.883 90.514-13.427 8.683-29.198 13.402-45.309 13.402H98.39c-22.276 0-43.217-8.674-58.967-24.424C23.674 432.747 15 411.806 15 389.53c0-16.737 4.962-32.908 14.349-46.764l78.52-115.899a7.5 7.5 0 0 0-12.418-8.414l-78.52 115.899C5.854 350.701 0 369.781 0 389.53c0 26.282 10.234 50.99 28.817 69.573 18.582 18.582 43.291 28.816 69.573 28.816h172.35c20.862 0 41.245-6.703 58.015-18.945 18.557 11.982 40.644 18.945 64.328 18.945C458.654 487.92 512 434.574 512 369.004c0-65.571-53.346-118.917-118.917-118.917zm0 222.833c-57.3 0-103.917-46.616-103.917-103.916s46.617-103.917 103.917-103.917S497 311.704 497 369.004 450.383 472.92 393.083 472.92z" /><path d="M470.074 327.032a7.5 7.5 0 1 0-13.164 7.192c5.787 10.595 8.846 22.621 8.846 34.78 0 40.072-32.601 72.673-72.673 72.673s-72.673-32.601-72.673-72.673 32.601-72.673 72.673-72.673c16.979 0 33.497 5.978 46.512 16.831a7.5 7.5 0 0 0 9.607-11.519c-15.706-13.098-35.636-20.312-56.119-20.312-48.343 0-87.673 39.33-87.673 87.673s39.33 87.673 87.673 87.673 87.673-39.33 87.673-87.673c0-14.664-3.693-29.178-10.682-41.972z" /><path d="M393.083 426.906a7.5 7.5 0 0 0 7.5-7.5v-7.827h2.454c13.806 0 25.038-11.232 25.038-25.038s-11.232-25.037-25.038-25.037h-19.908c-5.535 0-10.038-4.503-10.038-10.038s4.503-10.038 10.038-10.038h29.192c4.142 0 7.5-3.357 7.5-7.5s-3.358-7.5-7.5-7.5h-11.738v-7.827c0-4.143-3.358-7.5-7.5-7.5s-7.5 3.357-7.5 7.5v7.827h-2.454c-13.806 0-25.038 11.232-25.038 25.038s11.232 25.038 25.038 25.038h19.908c5.535 0 10.038 4.503 10.038 10.037 0 5.535-4.503 10.038-10.038 10.038h-29.192c-4.142 0-7.5 3.357-7.5 7.5s3.358 7.5 7.5 7.5h11.739v7.827a7.498 7.498 0 0 0 7.499 7.5zM332.578 156.935l5.861-4.688v68.76c0 4.143 3.358 7.5 7.5 7.5s7.5-3.357 7.5-7.5v-68.76l5.861 4.688a7.47 7.47 0 0 0 4.68 1.644 7.5 7.5 0 0 0 4.69-13.356l-18.046-14.437c-.019-.016-.042-.025-.061-.041a7.419 7.419 0 0 0-1.001-.668c-.007-.003-.013-.008-.02-.012a7.512 7.512 0 0 0-1.064-.472c-.05-.018-.1-.038-.15-.055a7.498 7.498 0 0 0-1.264-.301c-.368-.056-.741-.093-1.124-.093s-.756.038-1.124.093c-.065.01-.129.018-.193.029a7.464 7.464 0 0 0-1.071.272c-.051.017-.1.037-.15.055a7.4 7.4 0 0 0-1.064.472c-.007.004-.013.009-.02.012a7.514 7.514 0 0 0-1.001.668c-.02.016-.042.025-.061.041l-18.046 14.437a7.499 7.499 0 0 0 9.368 11.712zM426.867 116.712l5.861-4.688v68.76c0 4.143 3.358 7.5 7.5 7.5s7.5-3.357 7.5-7.5v-68.76l5.861 4.688a7.47 7.47 0 0 0 4.68 1.644 7.5 7.5 0 0 0 4.69-13.356l-18.046-14.437c-.019-.016-.042-.025-.061-.041a7.419 7.419 0 0 0-1.001-.668c-.007-.003-.013-.008-.02-.012a7.512 7.512 0 0 0-1.064-.472c-.05-.018-.1-.038-.15-.055a7.498 7.498 0 0 0-1.264-.301c-.368-.056-.741-.093-1.124-.093s-.756.038-1.124.093c-.065.01-.129.018-.193.029a7.464 7.464 0 0 0-1.071.272c-.051.017-.1.037-.15.055a7.4 7.4 0 0 0-1.064.472c-.007.004-.013.009-.02.012a7.514 7.514 0 0 0-1.001.668c-.02.016-.042.025-.061.041L417.499 105a7.499 7.499 0 0 0 9.368 11.712z" /></symbol><symbol viewBox="0 0 512 512" id="startup"><path d="M34.524 225.391a7.5 7.5 0 0 0 7.5-7.5V157.34c0-16.94 10.875-29.235 25.857-29.235h88.317c4.142 0 7.5-3.357 7.5-7.5s-3.358-7.5-7.5-7.5H67.881c-23.292 0-40.857 19.017-40.857 44.235v60.551a7.5 7.5 0 0 0 7.5 7.5z" /><path d="M67.881 142.385c-6.925 0-11.577 6.01-11.577 14.955v231.585c0 1.751.613 3.447 1.732 4.794 1.873 2.254 5.443 4.661 9.845 4.661h376.237c4.4 0 7.971-2.406 9.844-4.659a7.497 7.497 0 0 0 1.734-4.796v-38.799c0-4.143-3.357-7.5-7.5-7.5s-7.5 3.357-7.5 7.5v33.254H71.304V157.385h87.402c4.142 0 7.5-3.357 7.5-7.5s-3.358-7.5-7.5-7.5H67.881zM448.196 327.745c4.143 0 7.5-3.357 7.5-7.5V157.34c0-8.945-4.653-14.955-11.578-14.955h-88.783c-4.143 0-7.5 3.357-7.5 7.5s3.357 7.5 7.5 7.5h85.361v162.859a7.5 7.5 0 0 0 7.5 7.501z" /><path d="M497.743 429.588H484.98V157.339c0-25.215-17.566-44.229-40.86-44.229h-87.65c-4.143 0-7.5 3.357-7.5 7.5s3.357 7.5 7.5 7.5h87.65c14.984 0 25.86 12.293 25.86 29.229v272.249H307.803c-7.861 0-14.257 6.396-14.257 14.257v6.928h-75.092v-6.928c0-7.861-6.396-14.257-14.257-14.257H42.02v-181.7c0-4.143-3.358-7.5-7.5-7.5s-7.5 3.357-7.5 7.5v181.699H14.257C6.396 429.588 0 435.983 0 443.844v17.617c0 17.784 14.468 32.252 32.252 32.252h447.496c17.784 0 32.252-14.468 32.252-32.252v-17.617c0-7.861-6.396-14.256-14.257-14.256zM497 461.462c0 9.513-7.739 17.252-17.252 17.252H32.252c-9.513 0-17.252-7.739-17.252-17.252v-16.874h19.501l.019.001.019-.001h168.915v6.928c0 7.861 6.396 14.257 14.257 14.257h76.578c7.861 0 14.257-6.396 14.257-14.257v-6.928h168.915l.019.001.019-.001H497v16.874z" /><path d="M256 173.257c18.651 0 33.825-15.174 33.825-33.825S274.651 105.607 256 105.607s-33.825 15.174-33.825 33.825 15.174 33.825 33.825 33.825zm0-52.65c10.38 0 18.825 8.445 18.825 18.825S266.38 158.257 256 158.257c-10.38 0-18.825-8.445-18.825-18.825s8.445-18.825 18.825-18.825z" /><path d="M181.442 152.001c-20.555 20.049-32.272 47.692-32.272 76.498 0 2.419.08 4.81.237 7.099.675 9.921 8.978 17.691 18.903 17.691h39.743c.777 2.092 1.56 4.169 2.354 6.21 3.105 7.975 10.641 13.128 19.198 13.128h52.791c8.558 0 16.093-5.153 19.197-13.128a432.741 432.741 0 0 0 2.354-6.21h39.744c9.924 0 18.227-7.771 18.902-17.688.157-2.297.237-4.687.237-7.103 0-28.806-11.717-56.448-32.272-76.498 2.191-14.015 3.416-26.75 3.416-37.102 0-52.775-66.224-91.161-73.79-95.373l-.119-.066a42.412 42.412 0 0 0-.492-.27c-.01-.005-.02-.008-.029-.014a7.684 7.684 0 0 0-.768-.355c-.068-.027-.137-.049-.205-.074a7.557 7.557 0 0 0-1.551-.388c-.049-.007-.097-.016-.146-.021a7.458 7.458 0 0 0-1.735-.001c-.061.007-.122.019-.183.027a7.772 7.772 0 0 0-.889.18 7.412 7.412 0 0 0-.678.216c-.045.017-.091.03-.135.047a7.341 7.341 0 0 0-.8.371l-.026.012c-.428.232-10.633 5.794-23.394 15.49a7.501 7.501 0 0 0 9.076 11.944c7.458-5.668 14.037-9.848 17.885-12.165 8.195 4.948 28.818 18.39 44.262 36.832l.141.168a119.813 119.813 0 0 1 2.646 3.294c.101.131.197.261.297.391h-94.69a123.897 123.897 0 0 1 7.97-9.357 7.5 7.5 0 0 0-10.94-10.262c-3.939 4.2-7.47 8.458-10.596 12.735-.099.12-.2.237-.293.364-.313.433-.607.866-.911 1.298l-.279.398a111.573 111.573 0 0 0-3.514 5.364l-.373.611c-.458.76-.902 1.52-1.333 2.28-.075.132-.158.264-.232.396-.016.029-.027.06-.042.089-6.685 11.94-10.08 23.953-10.08 35.839-.002 10.353 1.223 23.088 3.414 37.103zm-13.132 86.288c-2.066 0-3.796-1.629-3.938-3.715a89.229 89.229 0 0 1-.203-6.075c0-21.198 7.381-41.665 20.591-57.932 4.379 21.935 10.637 45.646 18.011 67.722H168.31zm179.52-9.79c0 2.075-.068 4.12-.202 6.08-.142 2.08-1.871 3.71-3.938 3.71h-34.462c7.373-22.075 13.632-45.787 18.011-67.721 13.21 16.266 20.591 36.733 20.591 57.931zM312.745 90.143c4.807 9.842 6.228 18.253 6.228 24.756 0 32.862-13.774 93.987-31.359 139.158a5.567 5.567 0 0 1-5.219 3.569h-52.791a5.568 5.568 0 0 1-5.22-3.569c-17.584-45.17-31.359-106.295-31.359-139.158 0-8.074 2.086-16.361 6.196-24.756h113.524zM255.999 351.726a33.518 33.518 0 0 1-11.088-21.641c-.428-4.119-4.117-7.117-8.234-6.686a7.5 7.5 0 0 0-6.686 8.234c1.521 14.661 9.509 27.706 21.916 35.788 1.244.811 2.669 1.216 4.094 1.216s2.85-.405 4.094-1.216c13.887-9.048 22.178-24.325 22.178-40.866 0-16.542-8.291-31.819-22.178-40.866a7.501 7.501 0 0 0-8.188 0 48.893 48.893 0 0 0-11.709 10.69 7.5 7.5 0 0 0 1.238 10.534 7.502 7.502 0 0 0 10.534-1.237 33.99 33.99 0 0 1 4.034-4.288 33.634 33.634 0 0 1 11.269 25.167 33.645 33.645 0 0 1-11.274 25.171z" /></symbol></defs></svg>